#!OML:ASF H:\BabyWalks\Project 1\Capture day 1\Session 1\baby.ASF
:FULLY-SPECIFIED
:DEGREES
415
root 15.7519 17.4275 -1.69239 1.16868 33.8202 -6.13982
lowerback 23.1618 0.652707 6.64913
upperback 4.49309 2.88051 3.33235
thorax -7.81554 1.31278 -0.989863
lowerneck -4.80861 1.37878 9.08578
upperneck -0.286219 1.52469 -11.8203
head 0.876147 0.633039 -5.01711
rclavicle -9.26337e-014 1.98785e-014
rhumerus -47.6023 -0.418784 -73.4793
rradius 41.7934
rwrist 9.18859
rhand -22.8982 -21.3235
rfingers 7.12502
rthumb 3.54141 -51.2738
lclavicle -9.26337e-014 1.98785e-014
lhumerus -51.9521 -8.08351 83.8001
lradius 48.2662
lwrist -7.39237
lhand -0.353788 9.63994
lfingers 7.12502
lthumb 25.2515 37.9889
rfemur -17.1793 1.34541 26.4457
rtibia 35.2773
rfoot -19.837 -3.41439
rtoes -2.35511
lfemur -33.0306 2.64322 -10.7615
ltibia 69.8271
lfoot -15.634 -21.8805
ltoes 0.0570818
416
root 15.8193 17.4428 -1.57157 1.13803 33.8841 -6.29914
lowerback 23.0944 0.751858 6.81647
upperback 4.44376 3.04745 3.3535
thorax -7.81708 1.38764 -1.10737
lowerneck -4.86916 1.30854 9.08435
upperneck -0.367421 1.42169 -11.8881
head 0.852249 0.580335 -5.04054
rclavicle 6.0033e-014 -1.03368e-014
rhumerus -47.1063 0.0221018 -74.047
rradius 43.9028
rwrist 7.2898
rhand -24.7733 -21.7532
rfingers 7.12502
rthumb 1.73052 -51.726
lclavicle 6.0033e-014 -1.03368e-014
lhumerus -52.4629 -7.93226 83.8484
lradius 47.0398
lwrist -7.82865
lhand 1.26801 10.4353
lfingers 7.12502
lthumb 26.8043 38.5558
rfemur -16.4586 1.20303 26.6443
rtibia 34.7355
rfoot -19.9673 -3.38089
rtoes -2.54607
lfemur -33.7151 2.66995 -11.0675
ltibia 68.3459
lfoot -15.9469 -21.2725
ltoes -0.213897
417
root 15.8878 17.4608 -1.44989 1.09347 34.0138 -6.46466
lowerback 23.0175 0.837745 6.96655
upperback 4.40115 3.19387 3.39289
thorax -7.80885 1.45396 -1.18865
lowerneck -4.94751 1.23591 9.06522
upperneck -0.426282 1.31692 -11.9564
head 0.837435 0.526025 -5.06108
rclavicle 3.73715e-014 -7.95139e-015
rhumerus -46.671 0.583892 -74.6015
rradius 46.1598
rwrist 5.41113
rhand -26.1062 -22.1442
rfingers 7.12502
rthumb 0.443214 -52.1234
lclavicle 3.73715e-014 -7.95139e-015
lhumerus -52.9434 -7.77905 83.89
lradius 45.9196
lwrist -8.29513
lhand 2.81559 11.2084
lfingers 7.12502
lthumb 28.2843 39.0929
rfemur -15.6918 1.04551 26.8404
rtibia 34.1338
rfoot -20.0631 -3.37853
rtoes -2.74208
lfemur -34.333 2.61268 -11.3633
ltibia 66.6615
lfoot -16.1992 -20.614
ltoes -0.397907
418
root 15.9597 17.4802 -1.33127 1.03273 34.2847 -6.65121
lowerback 22.9394 0.862181 7.19844
upperback 4.35263 3.28125 3.43506
thorax -7.80511 1.49029 -1.29588
lowerneck -5.03989 1.159 9.03779
upperneck -0.456083 1.20813 -12.0275
head 0.832895 0.468939 -5.08118
rclavicle 4.25399e-014 -2.78299e-014
rhumerus -46.2981 1.23914 -75.1292
rradius 48.5457
rwrist 3.57568
rhand -26.9384 -22.4499
rfingers 7.12502
rthumb -0.360635 -52.4293
lclavicle 4.25399e-014 -2.78299e-014
lhumerus -53.3997 -7.61979 83.9151
lradius 44.9163
lwrist -8.73688
lhand 4.27459 11.9366
lfingers 7.12502
lthumb 29.6778 39.5817
rfemur -14.8895 0.784778 27.0326
rtibia 33.4479
rfoot -20.1043 -3.38601
rtoes -2.93817
lfemur -34.9246 2.38256 -11.6489
ltibia 64.7769
lfoot -16.3663 -19.8964
ltoes -0.551646
419
root 16.0311 17.494 -1.2112 0.971561 34.544 -6.82787
lowerback 22.8548 0.909486 7.36994
upperback 4.30963 3.38324 3.48366
thorax -7.79439 1.53537 -1.36569
lowerneck -5.15198 1.08013 9.00771
upperneck -0.450726 1.09808 -12.0927
head 0.841578 0.410244 -5.099
rclavicle 1.0138e-013 -7.79236e-014
rhumerus -45.9782 1.95167 -75.6214
rradius 51.0203
rwrist 1.80627
rhand -27.3275 -22.6431
rfingers 7.12502
rthumb -0.736352 -52.6216
lclavicle 1.0138e-013 -7.79236e-014
lhumerus -53.8333 -7.47052 83.9191
lradius 44.0353
lwrist -9.09279
lhand 5.64114 12.6115
lfingers 7.12502
lthumb 30.9813 40.0166
rfemur -14.0511 0.590184 27.2157
rtibia 32.7015
rfoot -20.096 -3.41611
rtoes -3.1016
lfemur -35.443 2.1544 -11.921
ltibia 62.7251
lfoot -16.5035 -19.1751
ltoes -0.706175
420
root 16.1034 17.5166 -1.09018 0.913711 34.8263 -6.98648
lowerback 22.7713 0.952702 7.51636
upperback 4.26256 3.47366 3.527
thorax -7.7903 1.57511 -1.42374
lowerneck -5.25471 1.00076 8.96748
upperneck -0.417278 0.9905 -12.1418
head 0.856912 0.352827 -5.11013
rclavicle -1.19271e-015 4.92986e-014
rhumerus -45.7202 2.71792 -76.0822
rradius 53.5735
rwrist 0.124644
rhand -27.3499 -22.7399
rfingers 7.12502
rthumb -0.75807 -52.7183
lclavicle -1.19271e-015 4.92986e-014
lhumerus -54.2652 -7.31787 83.8934
lradius 43.2884
lwrist -9.32969
lhand 6.91524 13.2442
lfingers 7.12502
lthumb 32.195 40.4108
rfemur -13.1585 0.404449 27.3808
rtibia 31.8723
rfoot -20.0293 -3.47246
rtoes -3.32271
lfemur -35.8407 1.88361 -12.1911
ltibia 60.4676
lfoot -16.6137 -18.4558
ltoes -0.843788
421
root 16.1762 17.5404 -0.968143 0.85971 35.0931 -7.12924
lowerback 22.6845 1.00771 7.63192
upperback 4.21737 3.56994 3.55698
thorax -7.78263 1.61829 -1.48033
lowerneck -5.35376 0.9203 8.9251
upperneck -0.359822 0.883243 -12.166
head 0.878398 0.295553 -5.11321
rclavicle 4.96962e-014 -4.37326e-014
rhumerus -45.5124 3.50736 -76.5209
rradius 56.1771
rwrist -1.45644
rhand -27.0852 -22.7646
rfingers 7.12502
rthumb -0.502379 -52.7438
lclavicle 4.96962e-014 -4.37326e-014
lhumerus -54.6873 -7.18347 83.8314
lradius 42.6773
lwrist -9.42991
lhand 8.09638 13.842
lfingers 7.12502
lthumb 33.3187 40.7744
rfemur -12.2261 0.263069 27.5338
rtibia 30.977
rfoot -19.9056 -3.55557
rtoes -3.6275
lfemur -36.1372 1.61123 -12.4491
ltibia 58.0524
lfoot -16.7077 -17.7675
ltoes -0.970658
422
root 16.2488 17.5653 -0.844467 0.80636 35.3134 -7.26678
lowerback 22.5882 1.08541 7.71166
upperback 4.17619 3.68423 3.57446
thorax -7.76526 1.67111 -1.53481
lowerneck -5.4474 0.841253 8.87926
upperneck -0.281155 0.779485 -12.1588
head 0.905266 0.240181 -5.10595
rclavicle -5.08889e-014 -1.03368e-014
rhumerus -45.3428 4.30098 -76.9396
rradius 58.7928
rwrist -2.90284
rhand -26.6268 -22.7161
rfingers 7.12502
rthumb -0.0596 -52.6959
lclavicle -5.08889e-014 -1.03368e-014
lhumerus -55.1022 -7.07744 83.7359
lradius 42.2025
lwrist -9.38732
lhand 9.19525 14.4126
lfingers 7.12502
lthumb 34.3627 41.1151
rfemur -11.2359 0.191375 27.6886
rtibia 29.9731
rfoot -19.7006 -3.65823
rtoes -3.98511
lfemur -36.3219 1.37217 -12.6784
ltibia 55.4885
lfoot -16.7772 -17.1305
ltoes -1.05972
423
root 16.3213 17.5912 -0.718854 0.751145 35.4728 -7.39849
lowerback 22.482 1.19017 7.75136
upperback 4.14214 3.82076 3.5777
thorax -7.73429 1.73591 -1.58769
lowerneck -5.52108 0.760456 8.82002
upperneck -0.198912 0.674895 -12.1072
head 0.929439 0.185405 -5.08273
rclavicle -9.50191e-014 -5.56597e-014
rhumerus -45.2024 5.08549 -77.3454
rradius 61.3917
rwrist -4.19454
rhand -26.0548 -22.5942
rfingers 7.12502
rthumb 0.492863 -52.5734
lclavicle -9.50191e-014 -5.56597e-014
lhumerus -55.5137 -7.00212 83.6081
lradius 41.8674
lwrist -9.2163
lhand 10.2133 14.9654
lfingers 7.12502
lthumb 35.3286 41.4441
rfemur -10.2002 0.200547 27.8463
rtibia 28.8983
rfoot -19.4418 -3.77801
rtoes -4.30669
lfemur -36.3998 1.17543 -12.8747
ltibia 52.8289
lfoot -16.8424 -16.5442
ltoes -1.1454
424
root 16.3939 17.6177 -0.591527 0.685292 35.5677 -7.53849
lowerback 22.3717 1.31675 7.75952
upperback 4.10972 3.97632 3.57062
thorax -7.69905 1.81053 -1.63873
lowerneck -5.56841 0.681051 8.75119
upperneck -0.107607 0.574298 -12.017
head 0.95214 0.133715 -5.04582
rclavicle -1.82882e-014 1.19271e-014
rhumerus -45.0911 5.87123 -77.7464
rradius 63.9425
rwrist -5.30949
rhand -25.4393 -22.3949
rfingers 7.12502
rthumb 1.08732 -52.3718
lclavicle -1.82882e-014 1.19271e-014
lhumerus -55.933 -6.95164 83.4509
lradius 41.6647
lwrist -8.94189
lhand 11.1637 15.5006
lfingers 7.12502
lthumb 36.2292 41.7605
rfemur -9.11986 0.285496 28.0196
rtibia 27.7534
rfoot -19.1282 -3.91304
rtoes -4.63486
lfemur -36.3826 1.01227 -13.0211
ltibia 50.1184
lfoot -16.9093 -15.9893
ltoes -1.29173
425
root 16.4671 17.644 -0.463045 0.607844 35.6161 -7.68345
lowerback 22.2559 1.45794 7.75145
upperback 4.08277 4.14459 3.55017
thorax -7.65367 1.89197 -1.69779
lowerneck -5.59875 0.602084 8.67279
upperneck -0.0148018 0.475117 -11.8867
head 0.972508 0.0836992 -4.99487
rclavicle -1.90833e-014 -1.98785e-014
rhumerus -44.9958 6.63949 -78.1411
rradius 66.4171
rwrist -6.22705
rhand -24.8277 -22.1127
rfingers 7.12502
rthumb 1.67799 -52.0859
lclavicle -1.90833e-014 -1.98785e-014
lhumerus -56.3507 -6.93679 83.2725
lradius 41.5865
lwrist -8.59629
lhand 12.0568 16.0157
lfingers 7.12502
lthumb 37.0745 42.0609
rfemur -7.99497 0.417445 28.2015
rtibia 26.542
rfoot -18.7606 -4.0532
rtoes -4.98175
lfemur -36.2863 0.847346 -13.1182
ltibia 47.4071
lfoot -16.966 -15.4478
ltoes -1.49904
426
root 16.5415 17.6692 -0.334062 0.515921 35.6308 -7.84148
lowerback 22.1338 1.60436 7.74026
upperback 4.05689 4.31718 3.51968
thorax -7.60259 1.97571 -1.76623
lowerneck -5.60852 0.522849 8.58728
upperneck 0.0811306 0.376649 -11.7235
head 0.9905 0.0350256 -4.93255
rclavicle -1.04561e-013 3.89618e-014
rhumerus -44.9184 7.39932 -78.5335
rradius 68.8002
rwrist -6.94743
rhand -24.2676 -21.7455
rfingers 7.12502
rthumb 2.2189 -51.7137
lclavicle -1.04561e-013 3.89618e-014
lhumerus -56.7728 -6.94813 83.0783
lradius 41.622
lwrist -8.20507
lhand 12.8932 16.5034
lfingers 7.12502
lthumb 37.865 42.3393
rfemur -6.83937 0.575312 28.3962
rtibia 25.283
rfoot -18.3532 -4.18879
rtoes -5.35687
lfemur -36.1346 0.658802 -13.1591
ltibia 44.7516
lfoot -17.0087 -14.888
ltoes -1.78206
